<svg version="1.1" xmlns="http://www.w3.org/2000/svg" viewBox="0 0 1139.472049492068 1107.9778708946171" width="2278.944098984136" height="2215.9557417892343">
  <!-- svg-source:excalidraw -->
  
  <defs>
    <style class="style-fonts">
      @font-face {
        font-family: "Virgil";
        src: url("https://excalidraw.com/Virgil.woff2");
      }
      @font-face {
        font-family: "Cascadia";
        src: url("https://excalidraw.com/Cascadia.woff2");
      }
      @font-face {
        font-family: "Assistant";
        src: url("https://excalidraw.com/Assistant-Regular.woff2");
      }
    </style>
    <clipPath id="K2qQM-ymCRyR3LhuFB_Cp">
            <rect transform="translate(0 0) rotate(0 569.736024746034 553.9889354473086)" width="1139.472049492068" height="1107.9778708946171">
          </rect>
        </clipPath>
  </defs>
  <rect x="0" y="0" width="1139.472049492068" height="1107.9778708946171" fill="#ffffff"></rect><g clip-path="url(#K2qQM-ymCRyR3LhuFB_Cp)"><g stroke-linecap="round" transform="translate(363.6507147200906 522.4644319928359) rotate(0 216.99090822560328 140.88189724943757)"><path d="M32 0 C117.77 -0.7, 205.9 1, 401.98 0 M32 0 C122.32 -1.5, 212.79 -0.9, 401.98 0 M401.98 0 C422.86 -1.46, 434.97 9.02, 433.98 32 M401.98 0 C424.16 -0.99, 432.6 11.67, 433.98 32 M433.98 32 C434.19 98.9, 433.26 164.63, 433.98 249.76 M433.98 32 C436.03 113.74, 435.38 195.84, 433.98 249.76 M433.98 249.76 C434.32 270.79, 422.23 281.23, 401.98 281.76 M433.98 249.76 C433.53 270.06, 425.61 279.88, 401.98 281.76 M401.98 281.76 C267.04 279.63, 131.46 281.35, 32 281.76 M401.98 281.76 C314.62 281.89, 226.17 281.74, 32 281.76 M32 281.76 C10.27 282.78, -0.03 269.88, 0 249.76 M32 281.76 C12.82 281.17, 1.57 271.96, 0 249.76 M0 249.76 C0.12 197.23, -0.61 141.97, 0 32 M0 249.76 C2.43 178.47, 2.22 107.93, 0 32 M0 32 C1.02 10.1, 11.61 -1.29, 32 0 M0 32 C2.01 11.65, 9.36 1.68, 32 0" stroke="#1e1e1e" stroke-width="2" fill="none"></path></g></g><g clip-path="url(#K2qQM-ymCRyR3LhuFB_Cp)"><g transform="translate(522.7814943458443 547.70668645216) rotate(0 57.111328125 12.996130275355384)"><text x="57.111328125" y="20.915647161900075" font-family="Cascadia, Segoe UI Emoji" font-size="21.66021712559231px" fill="#1e1e1e" text-anchor="middle" style="white-space: pre;" direction="ltr" dominant-baseline="alphabetic">kubenurse</text></g></g><g clip-path="url(#K2qQM-ymCRyR3LhuFB_Cp)"><g stroke-linecap="round"><g transform="translate(356.6455741900505 688.5950505674455) rotate(359.9564021184659 -63.418438562147 -256.75787849457464)"><path d="M-0.55 0.09 C-29.12 -6.76, -139.17 17.87, -172.09 -41.52 C-205 -100.92, -201.58 -280.97, -198.06 -356.28 C-194.54 -431.59, -190.21 -467.24, -150.97 -493.39 C-111.74 -519.54, 0.56 -518.12, 37.36 -513.2 C74.16 -508.27, 64.41 -472.36, 69.82 -463.84 M1.36 -0.91 C-27.34 -8.07, -139.82 15.84, -173.21 -43.27 C-206.61 -102.37, -202.74 -280.66, -199 -355.55 C-195.27 -430.44, -190.5 -466.43, -150.82 -492.61 C-111.14 -518.8, 2.15 -517.81, 39.07 -512.64 C75.99 -507.47, 65.53 -469.86, 70.68 -461.57" stroke="#1e1e1e" stroke-width="2" fill="none"></path></g><g transform="translate(356.6455741900505 688.5950505674455) rotate(359.9564021184659 -63.418438562147 -256.75787849457464)"><path d="M58.64 -483.48 C61.69 -478.59, 65.7 -473.18, 70.68 -461.57 M58.64 -483.48 C60.32 -478.63, 62.69 -474.93, 70.68 -461.57" stroke="#1e1e1e" stroke-width="2" fill="none"></path></g><g transform="translate(356.6455741900505 688.5950505674455) rotate(359.9564021184659 -63.418438562147 -256.75787849457464)"><path d="M75.54 -486.09 C74.41 -480.64, 74.26 -474.58, 70.68 -461.57 M75.54 -486.09 C73.74 -480.8, 72.62 -476.56, 70.68 -461.57" stroke="#1e1e1e" stroke-width="2" fill="none"></path></g></g><mask></mask></g><g clip-path="url(#K2qQM-ymCRyR3LhuFB_Cp)"><g stroke-linecap="round"><g transform="translate(353.0345499869892 636.9031202354429) rotate(0 -37.60507010238206 -140.86962512510897)"><path d="M-0.41 -0.34 C-19.8 -6.19, -92.67 -12.53, -115.94 -36.04 C-139.2 -59.55, -141.92 -103.53, -140.01 -141.4 C-138.09 -179.28, -134.03 -239.96, -104.44 -263.31 C-74.84 -286.66, 9.28 -282.9, 37.58 -281.51 C65.87 -280.12, 60.51 -259.44, 65.32 -254.96 M1.57 -1.56 C-18 -7.18, -93.18 -11.76, -116.81 -34.82 C-140.44 -57.89, -141.77 -101.94, -140.18 -139.92 C-138.59 -177.91, -136.72 -239.21, -107.28 -262.72 C-77.84 -286.23, 7.52 -282.14, 36.47 -281 C65.42 -279.86, 61.27 -260.09, 66.42 -255.88" stroke="#f08c00" stroke-width="2" fill="none"></path></g><g transform="translate(353.0345499869892 636.9031202354429) rotate(0 -37.60507010238206 -140.86962512510897)"><path d="M52.56 -269.83 C56.53 -264.9, 60.7 -258.63, 66.42 -255.88 M52.56 -269.83 C57.77 -264.98, 61.23 -260.43, 66.42 -255.88" stroke="#f08c00" stroke-width="2" fill="none"></path></g><g transform="translate(353.0345499869892 636.9031202354429) rotate(0 -37.60507010238206 -140.86962512510897)"><path d="M64.77 -275.48 C64.62 -268.7, 64.72 -260.55, 66.42 -255.88 M64.77 -275.48 C66.05 -268.89, 65.53 -262.49, 66.42 -255.88" stroke="#f08c00" stroke-width="2" fill="none"></path></g></g><mask></mask></g><g clip-path="url(#K2qQM-ymCRyR3LhuFB_Cp)"><g stroke-linecap="round" transform="translate(379.5422498147699 673.7000505705465) rotate(0 71.02509899663562 17)"><path d="M8.5 0 C52.19 -1.52, 95.37 -1.36, 133.55 0 C141.06 2.24, 142.49 4.92, 142.05 8.5 C143 16.4, 140.86 22.06, 142.05 25.5 C141.82 30.78, 140.97 37.34, 133.55 34 C82.95 29.64, 35.82 30.72, 8.5 34 C4.29 32.57, -0.9 33.01, 0 25.5 C-1.53 17.63, -2.15 10.51, 0 8.5 C3.53 5.92, 0.95 -2.95, 8.5 0" stroke="none" stroke-width="0" fill="#f8f9fa"></path><path d="M8.5 0 C51.16 2.04, 92.69 -0.68, 133.55 0 M8.5 0 C53.91 0.24, 98.89 1.67, 133.55 0 M133.55 0 C141.13 -0.68, 143.86 2.4, 142.05 8.5 M133.55 0 C137.64 1.81, 143.2 2.2, 142.05 8.5 M142.05 8.5 C141.99 14.11, 140.77 20.97, 142.05 25.5 M142.05 8.5 C142.46 14.02, 141.68 18.55, 142.05 25.5 M142.05 25.5 C140.08 30.15, 140.64 35.65, 133.55 34 M142.05 25.5 C144.07 29.16, 138.12 32.53, 133.55 34 M133.55 34 C87.01 32.38, 42.99 32.93, 8.5 34 M133.55 34 C87.29 33.02, 40.51 34.89, 8.5 34 M8.5 34 C2.52 34.7, -0.93 31.4, 0 25.5 M8.5 34 C3.75 34.27, 0.35 30.43, 0 25.5 M0 25.5 C-0.02 20.01, 0.7 17.35, 0 8.5 M0 25.5 C-0.19 21.12, -0.71 18.28, 0 8.5 M0 8.5 C-1.81 1.92, 1.45 1.29, 8.5 0 M0 8.5 C-1.34 4.18, 2.59 1.17, 8.5 0" stroke="#1e1e1e" stroke-width="2" fill="none"></path></g></g><g clip-path="url(#K2qQM-ymCRyR3LhuFB_Cp)"><g transform="translate(391.9735988114055 678.7000505705465) rotate(0 58.59375 12)"><text x="58.59375" y="19.3125" font-family="Cascadia, Segoe UI Emoji" font-size="20px" fill="#1e1e1e" text-anchor="middle" style="white-space: pre;" direction="ltr" dominant-baseline="alphabetic">me_ingress</text></g></g><g clip-path="url(#K2qQM-ymCRyR3LhuFB_Cp)"><g stroke-linecap="round" transform="translate(379.0598006492338 616.7988639244443) rotate(0 71.02509899663562 17)"><path d="M8.5 0 C42.94 1.35, 80.13 -2.72, 133.55 0 C137.15 2.65, 141.55 -0.13, 142.05 8.5 C140.37 16.22, 140.83 22.65, 142.05 25.5 C139.64 29.3, 137.5 33.63, 133.55 34 C97.45 35.39, 59.03 29.84, 8.5 34 C4.84 32.99, 2.11 27.7, 0 25.5 C1.37 17.67, -2.22 10.46, 0 8.5 C-1.05 2.48, 2 3.42, 8.5 0" stroke="none" stroke-width="0" fill="#fff9db"></path><path d="M8.5 0 C39.7 -1, 70.56 0.8, 133.55 0 M8.5 0 C57.49 -0.44, 109.03 -1.54, 133.55 0 M133.55 0 C138.06 1.42, 143.72 2.71, 142.05 8.5 M133.55 0 C138.72 1.85, 140.05 1.33, 142.05 8.5 M142.05 8.5 C141.09 13.9, 141.41 22.58, 142.05 25.5 M142.05 8.5 C142.62 14.73, 142.51 20.67, 142.05 25.5 M142.05 25.5 C142.5 33.02, 140.82 32.52, 133.55 34 M142.05 25.5 C142.12 32.16, 139.44 33.61, 133.55 34 M133.55 34 C97.52 32.27, 64.71 32.63, 8.5 34 M133.55 34 C97.91 34.3, 60.48 32.65, 8.5 34 M8.5 34 C4.3 33.93, -0.09 33, 0 25.5 M8.5 34 C2.66 33.6, 1.46 32.21, 0 25.5 M0 25.5 C-0.84 21.14, 0.08 20.33, 0 8.5 M0 25.5 C-0.87 20.77, 0.44 15.85, 0 8.5 M0 8.5 C1.51 1.88, 2.28 -1.4, 8.5 0 M0 8.5 C1.55 3.76, 4.85 2.27, 8.5 0" stroke="#1e1e1e" stroke-width="2" fill="none"></path></g></g><g clip-path="url(#K2qQM-ymCRyR3LhuFB_Cp)"><g transform="translate(391.4911496458694 621.7988639244443) rotate(0 58.59375 12)"><text x="58.59375" y="19.3125" font-family="Cascadia, Segoe UI Emoji" font-size="20px" fill="#1e1e1e" text-anchor="middle" style="white-space: pre;" direction="ltr" dominant-baseline="alphabetic">me_service</text></g></g><g clip-path="url(#K2qQM-ymCRyR3LhuFB_Cp)"><g stroke-linecap="round" transform="translate(268.96721571294836 246.814806290175) rotate(0 146.68552208812088 41)"><path d="M20.5 0 C90.39 1.92, 159.52 -0.55, 272.87 0 C284.92 -1.96, 291.85 9.36, 293.37 20.5 C294.52 32.9, 291.48 46.53, 293.37 61.5 C290.57 75.76, 284.87 83.79, 272.87 82 C203.04 77.42, 128.11 78.29, 20.5 82 C9.13 79.78, 2.15 75.68, 0 61.5 C-1.73 50.47, 1.24 37.91, 0 20.5 C0.92 10.38, 7.35 -1.03, 20.5 0" stroke="none" stroke-width="0" fill="#f8f9fa"></path><path d="M20.5 0 C92.48 1.58, 163.99 0.14, 272.87 0 M20.5 0 C89.35 -0.26, 158.92 -1.6, 272.87 0 M272.87 0 C287.38 -0.36, 294.11 7.11, 293.37 20.5 M272.87 0 C287.67 -1.05, 294.24 7.45, 293.37 20.5 M293.37 20.5 C292.96 30.4, 291.91 40.93, 293.37 61.5 M293.37 20.5 C292.79 36.73, 292.91 51.79, 293.37 61.5 M293.37 61.5 C291.88 76.53, 288.31 80.97, 272.87 82 M293.37 61.5 C292.51 74.56, 286.46 82.99, 272.87 82 M272.87 82 C208.63 83.29, 141.98 83.5, 20.5 82 M272.87 82 C219.02 82.42, 166.32 82.94, 20.5 82 M20.5 82 C6.3 81.35, 1.1 75.42, 0 61.5 M20.5 82 C5.89 82.21, 1.62 76.04, 0 61.5 M0 61.5 C0.76 50.96, -0.29 40.38, 0 20.5 M0 61.5 C0.1 45.87, 1.01 30.62, 0 20.5 M0 20.5 C-1.49 7.13, 5.73 0.02, 20.5 0 M0 20.5 C-1.61 5.73, 5.69 -1.55, 20.5 0" stroke="#1e1e1e" stroke-width="2" fill="none"></path></g></g><g clip-path="url(#K2qQM-ymCRyR3LhuFB_Cp)"><g transform="translate(310.1839878010692 251.814806290175) rotate(0 105.46875 36)"><text x="105.46875" y="19.3125" font-family="Cascadia, Segoe UI Emoji" font-size="20px" fill="#1e1e1e" text-anchor="middle" style="white-space: pre;" direction="ltr" dominant-baseline="alphabetic">kubenurse ingress</text><text x="105.46875" y="43.3125" font-family="Cascadia, Segoe UI Emoji" font-size="20px" fill="#1e1e1e" text-anchor="middle" style="white-space: pre;" direction="ltr" dominant-baseline="alphabetic">-&gt;</text><text x="105.46875" y="67.3125" font-family="Cascadia, Segoe UI Emoji" font-size="20px" fill="#1e1e1e" text-anchor="middle" style="white-space: pre;" direction="ltr" dominant-baseline="alphabetic">ingress controller</text></g></g><g clip-path="url(#K2qQM-ymCRyR3LhuFB_Cp)"><g stroke-linecap="round" transform="translate(269.2786638873557 400.6040282908489) rotate(0 146.68552208812088 41)"><path d="M20.5 0 C107.1 -1.79, 196.92 -2.71, 272.87 0 C283.82 1.16, 295.62 9.31, 293.37 20.5 C294.73 33.48, 290.25 40.09, 293.37 61.5 C292.95 73.32, 290.12 79.77, 272.87 82 C198.99 81.97, 127.51 80.33, 20.5 82 C7.67 80.08, -0.97 71.61, 0 61.5 C1.2 50.16, -2.21 41.74, 0 20.5 C2.38 9.18, 4 0.48, 20.5 0" stroke="none" stroke-width="0" fill="#fff9db"></path><path d="M20.5 0 C91.65 -1.7, 161.99 -1.25, 272.87 0 M20.5 0 C73.09 -1.48, 126.88 -1.14, 272.87 0 M272.87 0 C288.21 -1.77, 293.93 6.55, 293.37 20.5 M272.87 0 C284.7 0.5, 295.59 5.51, 293.37 20.5 M293.37 20.5 C293.86 31.93, 292.12 44.56, 293.37 61.5 M293.37 20.5 C294.14 31.11, 292.55 44.43, 293.37 61.5 M293.37 61.5 C294.17 77.12, 287.2 81.48, 272.87 82 M293.37 61.5 C295.23 76.56, 286.11 80.54, 272.87 82 M272.87 82 C179.89 83.92, 85.03 83.26, 20.5 82 M272.87 82 C200.51 80.63, 128.76 80.78, 20.5 82 M20.5 82 C5.62 83.98, 0.63 73.87, 0 61.5 M20.5 82 C8.99 83.4, -1.56 73.2, 0 61.5 M0 61.5 C1.58 47.17, -1.36 33.3, 0 20.5 M0 61.5 C-0.82 50.19, 0.3 39.09, 0 20.5 M0 20.5 C0.17 8.36, 5.15 0.88, 20.5 0 M0 20.5 C0.73 5.6, 7.24 -0.36, 20.5 0" stroke="#f08c00" stroke-width="2" fill="none"></path></g></g><g clip-path="url(#K2qQM-ymCRyR3LhuFB_Cp)"><g transform="translate(316.35481097547665 429.6040282908489) rotate(0 99.609375 12)"><text x="99.609375" y="19.3125" font-family="Cascadia, Segoe UI Emoji" font-size="20px" fill="#f08c00" text-anchor="middle" style="white-space: pre;" direction="ltr" dominant-baseline="alphabetic">kubenurse service</text></g></g><g clip-path="url(#K2qQM-ymCRyR3LhuFB_Cp)"><g stroke-linecap="round" transform="translate(574.8694555166497 616.7988645641835) rotate(0 104.86523437500006 17)"><path d="M8.5 0 C85.09 0.03, 159.32 2.59, 201.23 0 C203.49 2.81, 210.79 6.17, 209.73 8.5 C207.57 11.94, 210.27 15.98, 209.73 25.5 C206.92 31.48, 208.57 35.48, 201.23 34 C131.33 35.74, 63.96 36.37, 8.5 34 C1.93 34.6, 1.37 27.63, 0 25.5 C1.59 19.83, 2.34 17.08, 0 8.5 C1.73 -0.4, 5.82 3.15, 8.5 0" stroke="none" stroke-width="0" fill="#a5d8ff"></path><path d="M8.5 0 C79.61 -1.93, 151.17 0.55, 201.23 0 M8.5 0 C65.5 1.33, 121.28 1.75, 201.23 0 M201.23 0 C208.68 1.46, 209.66 3.25, 209.73 8.5 M201.23 0 C207 0.24, 211.62 1.78, 209.73 8.5 M209.73 8.5 C208.39 13.2, 211.34 17.97, 209.73 25.5 M209.73 8.5 C208.87 14.04, 209.68 20.84, 209.73 25.5 M209.73 25.5 C211.17 30.62, 206 34.7, 201.23 34 M209.73 25.5 C208.25 29.65, 208.93 34.78, 201.23 34 M201.23 34 C163.2 34.72, 121.7 34.93, 8.5 34 M201.23 34 C162.31 32.4, 123.5 32.48, 8.5 34 M8.5 34 C2.68 34.41, -0.17 31.13, 0 25.5 M8.5 34 C4.35 34.27, 0 29.45, 0 25.5 M0 25.5 C-0.53 20.91, 1.1 19.49, 0 8.5 M0 25.5 C-0.53 21.78, 0.13 16.89, 0 8.5 M0 8.5 C1.44 3.3, 2.67 0.95, 8.5 0 M0 8.5 C1.86 1.19, 1.33 -0.58, 8.5 0" stroke="#1e1e1e" stroke-width="2" fill="none"></path></g></g><g clip-path="url(#K2qQM-ymCRyR3LhuFB_Cp)"><g transform="translate(580.1253148916499 621.7988645641835) rotate(0 99.609375 12)"><text x="99.609375" y="19.3125" font-family="Cascadia, Segoe UI Emoji" font-size="20px" fill="#1e1e1e" text-anchor="middle" style="white-space: pre;" direction="ltr" dominant-baseline="alphabetic">api_server_direct</text></g></g><g clip-path="url(#K2qQM-ymCRyR3LhuFB_Cp)"><g stroke-linecap="round" transform="translate(574.8694552147953 672.3082537684521) rotate(0 104.86523437500006 17)"><path d="M8.5 0 C63.56 1.5, 111.8 2.28, 201.23 0 C206.55 -3.42, 211.73 2.07, 209.73 8.5 C211.35 12.77, 209.4 17.65, 209.73 25.5 C207.63 34.26, 208.03 35.42, 201.23 34 C139.58 34.07, 72.4 35.52, 8.5 34 C4.75 37.07, 2.63 30.55, 0 25.5 C1.45 19.02, 1.45 12.9, 0 8.5 C-1.55 4.98, 0.49 2.51, 8.5 0" stroke="none" stroke-width="0" fill="#b2f2bb"></path><path d="M8.5 0 C48.72 2.42, 89.49 1.03, 201.23 0 M8.5 0 C55.72 -0.66, 101.82 -0.92, 201.23 0 M201.23 0 C205.48 1.59, 207.75 1.93, 209.73 8.5 M201.23 0 C205.42 -0.75, 207.59 1.54, 209.73 8.5 M209.73 8.5 C209.61 11.48, 211.31 17.19, 209.73 25.5 M209.73 8.5 C210.54 12.31, 208.94 17.29, 209.73 25.5 M209.73 25.5 C211.05 29.18, 208.39 35.43, 201.23 34 M209.73 25.5 C210.45 31.76, 208.37 34.99, 201.23 34 M201.23 34 C132.94 36.99, 66.22 35.66, 8.5 34 M201.23 34 C137.29 33.26, 71.7 33.01, 8.5 34 M8.5 34 C1.77 32.61, 1.81 31.55, 0 25.5 M8.5 34 C2.05 35.73, 1.27 30.71, 0 25.5 M0 25.5 C1.24 19.93, -1.48 14.59, 0 8.5 M0 25.5 C0.46 19.5, -0.44 13.92, 0 8.5 M0 8.5 C-0.01 4.73, 3.12 0.64, 8.5 0 M0 8.5 C1.72 2.26, 3.34 1.26, 8.5 0" stroke="#1e1e1e" stroke-width="2" fill="none"></path></g></g><g clip-path="url(#K2qQM-ymCRyR3LhuFB_Cp)"><g transform="translate(597.7034395897954 677.3082537684521) rotate(0 82.03125 12)"><text x="82.03125" y="19.3125" font-family="Cascadia, Segoe UI Emoji" font-size="20px" fill="#1e1e1e" text-anchor="middle" style="white-space: pre;" direction="ltr" dominant-baseline="alphabetic">api_server_dns</text></g></g><g clip-path="url(#K2qQM-ymCRyR3LhuFB_Cp)"><g stroke-linecap="round" transform="translate(593.303384616266 400.6040285376069) rotate(0 146.68552208812088 41)"><path d="M20.5 0 C87.07 2.26, 155.29 1.92, 272.87 0 C285.63 1.7, 290.2 6.19, 293.37 20.5 C289.24 28.91, 295.1 39.58, 293.37 61.5 C295.06 72.48, 285.56 79.95, 272.87 82 C201.35 83.19, 136.85 85.18, 20.5 82 C8.52 82.66, -0.4 72.61, 0 61.5 C0.52 47.5, 1.04 29.77, 0 20.5 C1.82 5.2, 8.28 -3.04, 20.5 0" stroke="none" stroke-width="0" fill="#e7f5ff"></path><path d="M20.5 0 C101.47 1.68, 180.49 1.46, 272.87 0 M20.5 0 C81.72 1.55, 144.08 1.84, 272.87 0 M272.87 0 C288.3 -1.12, 293.22 8.4, 293.37 20.5 M272.87 0 C285 2.29, 292.63 7.37, 293.37 20.5 M293.37 20.5 C291.92 32.45, 291.52 46.78, 293.37 61.5 M293.37 20.5 C292.66 31.18, 292.58 41.15, 293.37 61.5 M293.37 61.5 C294.7 76.53, 288.06 81.35, 272.87 82 M293.37 61.5 C295.07 75.83, 285.67 84.03, 272.87 82 M272.87 82 C189.93 85.24, 104.48 83.72, 20.5 82 M272.87 82 C177.89 79.68, 81.84 79.51, 20.5 82 M20.5 82 C8.15 81.27, -0.83 76.8, 0 61.5 M20.5 82 C5.14 81.76, -0.79 76.27, 0 61.5 M0 61.5 C-1.53 52.26, 0.97 44.3, 0 20.5 M0 61.5 C0.23 46.57, -0.5 30.35, 0 20.5 M0 20.5 C1.18 7.87, 6.58 1.96, 20.5 0 M0 20.5 C0.7 5.65, 7.36 2.11, 20.5 0" stroke="#1971c2" stroke-width="2" fill="none"></path></g></g><g clip-path="url(#K2qQM-ymCRyR3LhuFB_Cp)"><g transform="translate(616.942031704387 417.6040285376069) rotate(0 123.04687500000006 24)"><text x="123.046875" y="19.3125" font-family="Cascadia, Segoe UI Emoji" font-size="20px" fill="#1971c2" text-anchor="middle" style="white-space: pre;" direction="ltr" dominant-baseline="alphabetic">Kubernetes API server</text><text x="123.046875" y="43.3125" font-family="Cascadia, Segoe UI Emoji" font-size="20px" fill="#1971c2" text-anchor="middle" style="white-space: pre;" direction="ltr" dominant-baseline="alphabetic">e.g. 10.127.0.1</text></g></g><g clip-path="url(#K2qQM-ymCRyR3LhuFB_Cp)"><g stroke-linecap="round" transform="translate(593.3033836683936 246.81480649722704) rotate(0 146.68552208812088 41)"><path d="M20.5 0 C79.95 0.73, 132.07 -0.49, 272.87 0 C287.22 1.88, 291.47 5.44, 293.37 20.5 C296.92 31.52, 290.4 52.12, 293.37 61.5 C291.03 75.35, 288.69 80.07, 272.87 82 C184.23 84.43, 93.8 86.18, 20.5 82 C8.09 82.23, 1.2 73.56, 0 61.5 C-1.57 48.14, 0.87 34.49, 0 20.5 C1.27 6.35, 6.54 3.14, 20.5 0" stroke="none" stroke-width="0" fill="#ebfbee"></path><path d="M20.5 0 C82.1 0.46, 146.19 0.01, 272.87 0 M20.5 0 C93.92 0.05, 167.82 -0.2, 272.87 0 M272.87 0 C287.08 0.9, 292.39 8.01, 293.37 20.5 M272.87 0 C286.51 1.73, 293.14 5.26, 293.37 20.5 M293.37 20.5 C294.86 31.26, 295.01 41.28, 293.37 61.5 M293.37 20.5 C292.77 29.68, 293.36 36.98, 293.37 61.5 M293.37 61.5 C295.31 76.46, 286.61 82.25, 272.87 82 M293.37 61.5 C293.79 75.82, 288.27 80.68, 272.87 82 M272.87 82 C185.23 82.62, 95.05 83.28, 20.5 82 M272.87 82 C171.48 81.27, 70.97 80.9, 20.5 82 M20.5 82 C7.3 80.67, -1.45 75.71, 0 61.5 M20.5 82 C4.73 79.84, -1.88 73.77, 0 61.5 M0 61.5 C0.61 46.58, -0.73 32.02, 0 20.5 M0 61.5 C0.46 51, 0.49 40.56, 0 20.5 M0 20.5 C-1.53 7.98, 7.62 1.09, 20.5 0 M0 20.5 C0.44 5.04, 7.67 0.35, 20.5 0" stroke="#2f9e44" stroke-width="2" fill="none"></path></g></g><g clip-path="url(#K2qQM-ymCRyR3LhuFB_Cp)"><g transform="translate(611.0826557565146 263.81480649722704) rotate(0 128.90624999999994 24)"><text x="128.90625" y="19.3125" font-family="Cascadia, Segoe UI Emoji" font-size="20px" fill="#2f9e44" text-anchor="middle" style="white-space: pre;" direction="ltr" dominant-baseline="alphabetic">Kubernetes API server</text><text x="128.90625" y="43.3125" font-family="Cascadia, Segoe UI Emoji" font-size="20px" fill="#2f9e44" text-anchor="middle" style="white-space: pre;" direction="ltr" dominant-baseline="alphabetic">kubernetes.default.svc</text></g></g><g clip-path="url(#K2qQM-ymCRyR3LhuFB_Cp)"><g stroke-linecap="round"><g transform="translate(813.293328101206 633.1720505390192) rotate(0 20.26523578361281 -141.74676512330558)"><path d="M-0.61 0.77 C17.38 -7.77, 87.27 -14.08, 107.03 -50.58 C126.79 -87.08, 122.83 -180.95, 117.96 -218.22 C113.08 -255.5, 106.71 -263.35, 77.76 -274.22 C48.81 -285.08, -29.65 -288.19, -55.74 -283.43 C-81.83 -278.67, -75.26 -251.93, -78.75 -245.67 M1.27 0.13 C19.17 -8.29, 86.72 -12.54, 106.02 -49.25 C125.33 -85.96, 121.71 -182.77, 117.1 -220.16 C112.49 -257.54, 107.37 -263.1, 78.36 -273.58 C49.35 -284.05, -30.91 -287.46, -56.96 -283 C-83.01 -278.55, -74.23 -253.39, -77.94 -246.85" stroke="#1971c2" stroke-width="2" fill="none"></path></g><g transform="translate(813.293328101206 633.1720505390192) rotate(0 20.26523578361281 -141.74676512330558)"><path d="M-82.78 -268.15 C-80.3 -263.5, -81.16 -258.81, -77.94 -246.85 M-82.78 -268.15 C-80.5 -260.28, -80.09 -252.78, -77.94 -246.85" stroke="#1971c2" stroke-width="2" fill="none"></path></g><g transform="translate(813.293328101206 633.1720505390192) rotate(0 20.26523578361281 -141.74676512330558)"><path d="M-67.96 -266.27 C-68.82 -262.12, -73.02 -257.86, -77.94 -246.85 M-67.96 -266.27 C-71.1 -259.2, -76.1 -252.39, -77.94 -246.85" stroke="#1971c2" stroke-width="2" fill="none"></path></g></g><mask></mask></g><g clip-path="url(#K2qQM-ymCRyR3LhuFB_Cp)"><g stroke-linecap="round"><g transform="translate(805.7813067903403 690.5575542113647) rotate(0 50.919764582763776 -257.7987850913075)"><path d="M0.31 -0.82 C18.2 -3.21, 80.09 1.98, 107.03 -13.99 C133.97 -29.96, 151.07 -57.49, 161.94 -96.63 C172.81 -135.78, 175.74 -184.98, 172.23 -248.86 C168.71 -312.74, 177.31 -435.44, 140.86 -479.93 C104.41 -524.42, -11.17 -518.66, -46.48 -515.81 C-81.78 -512.96, -67.08 -471.72, -70.98 -462.86 M-0.99 1.36 C16.79 -0.92, 79.08 3.25, 106.16 -12.87 C133.23 -28.98, 150.43 -56.14, 161.47 -95.35 C172.5 -134.56, 176.01 -184.08, 172.37 -248.13 C168.73 -312.17, 176.37 -434.8, 139.63 -479.6 C102.88 -524.41, -13.06 -520.04, -48.09 -516.96 C-83.12 -513.88, -66.81 -470.06, -70.55 -461.13" stroke="#2f9e44" stroke-width="2" fill="none"></path></g><g transform="translate(805.7813067903403 690.5575542113647) rotate(0 50.919764582763776 -257.7987850913075)"><path d="M-79.28 -484.56 C-78.21 -477.98, -75.79 -470.91, -70.55 -461.13 M-79.28 -484.56 C-76.36 -477.68, -73.16 -470.84, -70.55 -461.13" stroke="#2f9e44" stroke-width="2" fill="none"></path></g><g transform="translate(805.7813067903403 690.5575542113647) rotate(0 50.919764582763776 -257.7987850913075)"><path d="M-62.18 -484.69 C-65.76 -478.04, -67.99 -470.93, -70.55 -461.13 M-62.18 -484.69 C-64.31 -477.88, -66.16 -471, -70.55 -461.13" stroke="#2f9e44" stroke-width="2" fill="none"></path></g></g><mask></mask></g><g clip-path="url(#K2qQM-ymCRyR3LhuFB_Cp)"><g stroke-linecap="round" transform="translate(422.21127527329645 734.3380142593969) rotate(0 158.88881557241837 21.23655559221379)"><path d="M10.62 0 C95.81 2.19, 182.4 2.22, 307.16 0 C312.02 2.49, 315.37 1.43, 317.78 10.62 C318.31 16.95, 319.86 23.84, 317.78 31.85 C316.85 41.96, 317.82 45.12, 307.16 42.47 C244.61 39.06, 183.89 38.58, 10.62 42.47 C2.67 45.28, -0.37 38.75, 0 31.85 C-1.68 25.76, 1.5 25.01, 0 10.62 C-2.72 4.79, 1.41 1.34, 10.62 0" stroke="none" stroke-width="0" fill="#fff5f5"></path><path d="M10.62 0 C91.12 -0.75, 169.52 1.1, 307.16 0 M10.62 0 C111.53 -0.7, 212.55 -0.88, 307.16 0 M307.16 0 C313.56 1.13, 316.18 4.62, 317.78 10.62 M307.16 0 C315.3 -1.67, 318.16 3.39, 317.78 10.62 M317.78 10.62 C318.8 15.46, 317.79 23.91, 317.78 31.85 M317.78 10.62 C317.95 16.28, 318.75 22.97, 317.78 31.85 M317.78 31.85 C319.31 38.97, 312.25 43.77, 307.16 42.47 M317.78 31.85 C316.41 38.65, 316.03 44.47, 307.16 42.47 M307.16 42.47 C213.86 39.34, 120.29 39.94, 10.62 42.47 M307.16 42.47 C229.66 42.73, 150.64 41.96, 10.62 42.47 M10.62 42.47 C2.59 42.42, 1.46 38.66, 0 31.85 M10.62 42.47 C5.13 41.07, -1.53 37.05, 0 31.85 M0 31.85 C-0.63 24.34, 0.18 13.25, 0 10.62 M0 31.85 C-0.47 25.74, 0.67 20.58, 0 10.62 M0 10.62 C-0.88 2.7, 2.4 0.69, 10.62 0 M0 10.62 C-1.98 3.9, 3.03 -1.01, 10.62 0" stroke="#e03131" stroke-width="2" fill="none"></path></g></g><g clip-path="url(#K2qQM-ymCRyR3LhuFB_Cp)"><g transform="translate(434.6157158457148 743.5745698516107) rotate(0 146.484375 12)"><text x="146.484375" y="19.3125" font-family="Cascadia, Segoe UI Emoji" font-size="20px" fill="#e03131" text-anchor="middle" style="white-space: pre;" direction="ltr" dominant-baseline="alphabetic">path_&lt;neighbouring nodes&gt;</text></g></g><g clip-path="url(#K2qQM-ymCRyR3LhuFB_Cp)"><g stroke-linecap="round" transform="translate(137.75126080788243 939.5755025509591) rotate(0 77.87813855537905 52.42911194666597)"><path d="M26.21 0 C49.16 -1.72, 74.27 -0.59, 129.54 0 M26.21 0 C59.22 1.05, 94.63 1.33, 129.54 0 M129.54 0 C147.62 -0.96, 156.18 9.8, 155.76 26.21 M129.54 0 C145.56 1.5, 155.96 9.4, 155.76 26.21 M155.76 26.21 C156.55 38.97, 154.9 49.24, 155.76 78.64 M155.76 26.21 C154.55 36.26, 156.28 47.65, 155.76 78.64 M155.76 78.64 C157.53 95.41, 146.63 106.29, 129.54 104.86 M155.76 78.64 C157.46 97.04, 148.08 103.26, 129.54 104.86 M129.54 104.86 C103.32 106.9, 73.52 104.78, 26.21 104.86 M129.54 104.86 C99.73 105.12, 70.2 104.92, 26.21 104.86 M26.21 104.86 C8.73 103.42, -1.08 94.53, 0 78.64 M26.21 104.86 C6.57 106.62, 1.15 95.72, 0 78.64 M0 78.64 C0.89 63.61, -0.7 47.45, 0 26.21 M0 78.64 C-1.04 58.53, 0.22 36.51, 0 26.21 M0 26.21 C1.24 7.54, 8.54 -0.97, 26.21 0 M0 26.21 C2.2 9.13, 8.49 1.14, 26.21 0" stroke="#1e1e1e" stroke-width="2" fill="none"></path></g></g><g clip-path="url(#K2qQM-ymCRyR3LhuFB_Cp)"><g transform="translate(174.61377436326148 980.004614497625) rotate(0 41.01562499999997 12)"><text x="41.015625" y="19.3125" font-family="Cascadia, Segoe UI Emoji" font-size="20px" fill="#1e1e1e" text-anchor="middle" style="white-space: pre;" direction="ltr" dominant-baseline="alphabetic">node-01</text></g></g><g clip-path="url(#K2qQM-ymCRyR3LhuFB_Cp)"><g stroke-linecap="round" transform="translate(316.0576088078825 938.7829224751597) rotate(0 77.87813855537905 52.429111946665955)"><path d="M26.21 0 C60.9 -1.45, 95.77 -1.18, 129.54 0 M26.21 0 C63.21 0.58, 100.88 -0.25, 129.54 0 M129.54 0 C147.09 0.59, 157.47 7.68, 155.76 26.21 M129.54 0 C145.71 -1.39, 157.24 9.08, 155.76 26.21 M155.76 26.21 C157.27 38.69, 155.16 51.75, 155.76 78.64 M155.76 26.21 C156.85 38.15, 156.5 47.37, 155.76 78.64 M155.76 78.64 C156.32 97.73, 145.74 104.54, 129.54 104.86 M155.76 78.64 C156.96 94.43, 147.84 103.77, 129.54 104.86 M129.54 104.86 C91.79 103.81, 54.18 105.9, 26.21 104.86 M129.54 104.86 C107.72 106.19, 87.32 106.2, 26.21 104.86 M26.21 104.86 C7.17 104.78, 1.9 95.88, 0 78.64 M26.21 104.86 C6.7 102.94, -2.16 96.33, 0 78.64 M0 78.64 C-1.91 66.05, -0.26 53.61, 0 26.21 M0 78.64 C-1.31 67.63, -0.24 56.26, 0 26.21 M0 26.21 C-2 9.81, 8.41 1.56, 26.21 0 M0 26.21 C-0.38 8.38, 6.71 0.7, 26.21 0" stroke="#1e1e1e" stroke-width="2" fill="none"></path></g></g><g clip-path="url(#K2qQM-ymCRyR3LhuFB_Cp)"><g transform="translate(352.9201223632615 979.2120344218256) rotate(0 41.015625 12)"><text x="41.015625" y="19.3125" font-family="Cascadia, Segoe UI Emoji" font-size="20px" fill="#1e1e1e" text-anchor="middle" style="white-space: pre;" direction="ltr" dominant-baseline="alphabetic">node-02</text></g></g><g clip-path="url(#K2qQM-ymCRyR3LhuFB_Cp)"><g stroke-linecap="round" transform="translate(496.15656480788255 939.2718640130593) rotate(0 77.87813855537905 52.429111946665955)"><path d="M26.21 0 C54.66 1.75, 80.69 -0.61, 129.54 0 M26.21 0 C63.58 0.52, 101.72 -0.3, 129.54 0 M129.54 0 C145.88 -1.21, 157.05 9.04, 155.76 26.21 M129.54 0 C145.64 0.06, 155.53 10.47, 155.76 26.21 M155.76 26.21 C153.8 42.46, 156.19 58.82, 155.76 78.64 M155.76 26.21 C156.32 47.56, 155.39 67.13, 155.76 78.64 M155.76 78.64 C156.8 94.65, 147.73 103.91, 129.54 104.86 M155.76 78.64 C157.1 95.39, 147.72 104.02, 129.54 104.86 M129.54 104.86 C103.64 106.1, 82.46 103.32, 26.21 104.86 M129.54 104.86 C88.29 105.78, 49.55 105.7, 26.21 104.86 M26.21 104.86 C6.97 103.19, -1.88 96.3, 0 78.64 M26.21 104.86 C7.21 107.05, 2.27 94.5, 0 78.64 M0 78.64 C-1.84 65.62, 1.65 47.31, 0 26.21 M0 78.64 C-1.12 63.15, -0.28 47.36, 0 26.21 M0 26.21 C-0.33 8.43, 6.97 0.61, 26.21 0 M0 26.21 C0.24 6.82, 8.31 0.18, 26.21 0" stroke="#1e1e1e" stroke-width="2" fill="none"></path></g></g><g clip-path="url(#K2qQM-ymCRyR3LhuFB_Cp)"><g transform="translate(533.0190783632615 979.7009759597253) rotate(0 41.015625 12)"><text x="41.015625" y="19.3125" font-family="Cascadia, Segoe UI Emoji" font-size="20px" fill="#1e1e1e" text-anchor="middle" style="white-space: pre;" direction="ltr" dominant-baseline="alphabetic">node-03</text></g></g><g clip-path="url(#K2qQM-ymCRyR3LhuFB_Cp)"><g stroke-linecap="round" transform="translate(676.2555208078825 939.5755020130593) rotate(0 77.878138555379 52.42911194666597)"><path d="M26.21 0 C66.29 2.1, 108.39 0.74, 129.54 0 M26.21 0 C47.33 0.14, 69.41 -0.77, 129.54 0 M129.54 0 C145.19 -1.84, 155.55 9, 155.76 26.21 M129.54 0 C146.35 1.64, 157.08 8.52, 155.76 26.21 M155.76 26.21 C155.65 45.42, 156.94 67.14, 155.76 78.64 M155.76 26.21 C156.43 45.66, 155.67 63.65, 155.76 78.64 M155.76 78.64 C154.73 97.63, 146.76 106.04, 129.54 104.86 M155.76 78.64 C155.4 97.78, 148.51 106.3, 129.54 104.86 M129.54 104.86 C96.9 106.36, 65.96 102.72, 26.21 104.86 M129.54 104.86 C99.21 106.09, 69.94 104.97, 26.21 104.86 M26.21 104.86 C8.8 105.3, -1.8 98.02, 0 78.64 M26.21 104.86 C7.66 103.52, -0.49 96.02, 0 78.64 M0 78.64 C-0.68 65.18, -0.6 47.07, 0 26.21 M0 78.64 C0.57 66.68, -0.48 54.72, 0 26.21 M0 26.21 C-1.32 6.87, 8.68 1.98, 26.21 0 M0 26.21 C0.63 10.85, 10.92 -1.11, 26.21 0" stroke="#1e1e1e" stroke-width="2" fill="none"></path></g></g><g clip-path="url(#K2qQM-ymCRyR3LhuFB_Cp)"><g transform="translate(713.1180343632616 980.0046139597252) rotate(0 41.015625 12)"><text x="41.015625" y="19.3125" font-family="Cascadia, Segoe UI Emoji" font-size="20px" fill="#1e1e1e" text-anchor="middle" style="white-space: pre;" direction="ltr" dominant-baseline="alphabetic">node-04</text></g></g><g clip-path="url(#K2qQM-ymCRyR3LhuFB_Cp)"><g stroke-linecap="round" transform="translate(856.2313732699829 939.2718634751595) rotate(0 77.87813855537911 52.429111946665955)"><path d="M26.21 0 C51.36 -0.71, 75.88 -1.84, 129.54 0 M26.21 0 C56.97 0.1, 88.79 0.6, 129.54 0 M129.54 0 C146.12 1.12, 155.55 6.96, 155.76 26.21 M129.54 0 C147.62 -0.69, 155.71 7.37, 155.76 26.21 M155.76 26.21 C153.74 45.97, 153.44 64.59, 155.76 78.64 M155.76 26.21 C155.71 36.69, 155.76 47.97, 155.76 78.64 M155.76 78.64 C157.05 95.64, 147.57 104.03, 129.54 104.86 M155.76 78.64 C153.91 93.84, 144.88 103.56, 129.54 104.86 M129.54 104.86 C108.38 104.51, 87.3 102.73, 26.21 104.86 M129.54 104.86 C107.48 104.65, 86.97 104.37, 26.21 104.86 M26.21 104.86 C9.46 104.11, -1.05 94.19, 0 78.64 M26.21 104.86 C6.74 106, -0.47 97.95, 0 78.64 M0 78.64 C-0.39 63.15, -0.84 46.61, 0 26.21 M0 78.64 C-0.13 63.49, 0.36 48.78, 0 26.21 M0 26.21 C-1.18 7.66, 10.39 0.87, 26.21 0 M0 26.21 C0.41 6.83, 9.21 -0.34, 26.21 0" stroke="#1e1e1e" stroke-width="2" fill="none"></path></g></g><g clip-path="url(#K2qQM-ymCRyR3LhuFB_Cp)"><g transform="translate(893.093886825362 979.7009754218255) rotate(0 41.015625 12)"><text x="41.015625" y="19.3125" font-family="Cascadia, Segoe UI Emoji" font-size="20px" fill="#1e1e1e" text-anchor="middle" style="white-space: pre;" direction="ltr" dominant-baseline="alphabetic">node-05</text></g></g><g clip-path="url(#K2qQM-ymCRyR3LhuFB_Cp)"><g mask="url(#mask-cPIk6JefZQAQdZ3KcOzwB)" stroke-linecap="round"><g transform="translate(511.876143452248 821.6739722919983) rotate(0 -148.0708775022581 52.64640565613894)"><path d="M-0.83 -0.96 C-12.22 -0.28, -35.11 2.7, -67.27 4.93 C-99.43 7.17, -161.73 6.2, -193.79 12.46 C-225.84 18.72, -242.41 27.16, -259.58 42.51 C-276.74 57.85, -290.47 94.02, -296.76 104.55 M0.93 1.14 C-10.61 1.94, -35.11 4.33, -67.67 6.35 C-100.23 8.38, -162.44 7.14, -194.42 13.3 C-226.4 19.47, -242.79 28.12, -259.54 43.33 C-276.29 58.53, -288.74 94.3, -294.9 104.54" stroke="#1e1e1e" stroke-width="2" fill="none"></path></g><g transform="translate(511.876143452248 821.6739722919983) rotate(0 -148.0708775022581 52.64640565613894)"><path d="M-292.37 79.67 C-294.78 90.99, -294.53 99.27, -294.9 104.54 M-292.37 79.67 C-293.54 84.63, -294.58 91.14, -294.9 104.54" stroke="#1e1e1e" stroke-width="2" fill="none"></path></g><g transform="translate(511.876143452248 821.6739722919983) rotate(0 -148.0708775022581 52.64640565613894)"><path d="M-276.97 87.12 C-285.38 95.46, -291.06 100.86, -294.9 104.54 M-276.97 87.12 C-281.58 90.33, -286.08 95.17, -294.9 104.54" stroke="#1e1e1e" stroke-width="2" fill="none"></path></g></g><mask id="mask-cPIk6JefZQAQdZ3KcOzwB"><rect x="0" y="0" fill="#fff" width="908.0178984567642" height="1026.9667836042763"></rect><rect x="261.587295960705" y="825.4384846283391" fill="#000" width="112.5" height="19.2" opacity="1"></rect></mask></g><g clip-path="url(#K2qQM-ymCRyR3LhuFB_Cp)"><g transform="translate(261.587295960705 825.4384846283391) rotate(0 102.3727813360394 48.02624767699602)"><text x="56.25" y="15.45" font-family="Cascadia, Segoe UI Emoji" font-size="16px" fill="#1e1e1e" text-anchor="middle" style="white-space: pre;" direction="ltr" dominant-baseline="alphabetic">path_node-01</text></g></g><g clip-path="url(#K2qQM-ymCRyR3LhuFB_Cp)"><g mask="url(#mask-kBY6cFy5A7pdJt1F_sB4F)" stroke-linecap="round"><g transform="translate(548.7497689940442 821.8746626786194) rotate(0 -79.32779235246039 49.82453903075201)"><path d="M-0.16 -0.33 C-7.01 4.16, -25.03 20.48, -41.85 26.2 C-58.67 31.91, -83.5 28.17, -101.08 33.96 C-118.67 39.75, -137.72 50.18, -147.36 60.95 C-157 71.71, -156.99 91.89, -158.93 98.54 M-1.7 -1.54 C-8.68 3.14, -26.44 21.19, -43.04 27.3 C-59.65 33.4, -83.91 29.25, -101.32 35.08 C-118.73 40.92, -138.26 51.74, -147.52 62.29 C-156.78 72.83, -155.18 92, -156.88 98.35" stroke="#1e1e1e" stroke-width="2" fill="none"></path></g><g transform="translate(548.7497689940442 821.8746626786194) rotate(0 -79.32779235246039 49.82453903075201)"><path d="M-161.57 78.41 C-161.13 82.38, -160.85 89.56, -156.88 98.35 M-161.57 78.41 C-160.67 82.84, -159.43 90.12, -156.88 98.35" stroke="#1e1e1e" stroke-width="2" fill="none"></path></g><g transform="translate(548.7497689940442 821.8746626786194) rotate(0 -79.32779235246039 49.82453903075201)"><path d="M-147.66 80.06 C-150.5 83.62, -153.54 90.41, -156.88 98.35 M-147.66 80.06 C-150.48 84.1, -152.99 90.93, -156.88 98.35" stroke="#1e1e1e" stroke-width="2" fill="none"></path></g></g><mask id="mask-kBY6cFy5A7pdJt1F_sB4F"><rect x="0" y="0" fill="#fff" width="807.405353698965" height="1021.5237407401235"></rect><rect x="390.41201630563774" y="846.6075826724741" fill="#000" width="112.5" height="19.2" opacity="1"></rect></mask></g><g clip-path="url(#K2qQM-ymCRyR3LhuFB_Cp)"><g transform="translate(390.41201630563774 846.6075826724741) rotate(0 78.79515815832315 23.76715137365388)"><text x="56.25" y="15.45" font-family="Cascadia, Segoe UI Emoji" font-size="16px" fill="#1e1e1e" text-anchor="middle" style="white-space: pre;" direction="ltr" dominant-baseline="alphabetic">path_node-02</text></g></g><g clip-path="url(#K2qQM-ymCRyR3LhuFB_Cp)"><g mask="url(#mask-OgSXWIFJk90gVx1a3WSU5)" stroke-linecap="round"><g transform="translate(567.5960946504155 817.3551519264207) rotate(0 0.5421555682806343 52.9222276207702)"><path d="M0.96 0.63 C0.84 10.63, -0.27 42.45, -0.15 59.94 C-0.03 77.43, 1.32 97.9, 1.66 105.56 M0 -0.09 C0.2 10.07, 1.83 43.36, 2.03 61.16 C2.23 78.96, 1.1 99.08, 1.2 106.72" stroke="#1e1e1e" stroke-width="2" fill="none"></path></g><g transform="translate(567.5960946504155 817.3551519264207) rotate(0 0.5421555682806343 52.9222276207702)"><path d="M-6.17 85.3 C-2.6 90.93, -2.11 100.97, 1.2 106.72 M-6.17 85.3 C-3.07 90.24, -1.21 97.86, 1.2 106.72" stroke="#1e1e1e" stroke-width="2" fill="none"></path></g><g transform="translate(567.5960946504155 817.3551519264207) rotate(0 0.5421555682806343 52.9222276207702)"><path d="M9.32 85.58 C7.55 91.23, 2.7 101.18, 1.2 106.72 M9.32 85.58 C8.14 90.44, 5.73 97.99, 1.2 106.72" stroke="#1e1e1e" stroke-width="2" fill="none"></path></g></g><mask id="mask-OgSXWIFJk90gVx1a3WSU5"><rect x="0" y="0" fill="#fff" width="668.6804057869767" height="1023.1996071679612"></rect><rect x="512.2180058295411" y="868.296875522256" fill="#000" width="112.5" height="19.2" opacity="1"></rect></mask></g><g clip-path="url(#K2qQM-ymCRyR3LhuFB_Cp)"><g transform="translate(512.218005829541 868.296875522256) rotate(0 56.3250756291921 2.374805799641628)"><text x="56.25" y="15.45" font-family="Cascadia, Segoe UI Emoji" font-size="16px" fill="#1e1e1e" text-anchor="middle" style="white-space: pre;" direction="ltr" dominant-baseline="alphabetic">path_node-03</text></g></g><g clip-path="url(#K2qQM-ymCRyR3LhuFB_Cp)"><g mask="url(#mask-ozyaC3S4XNKDRQbMu-0q3)" stroke-linecap="round"><g transform="translate(595.4487911972205 823.0429189204953) rotate(0 77.51001549764476 52.795651717140515)"><path d="M0.44 0.25 C3.53 5.15, 2.96 22.77, 18.91 29.42 C34.87 36.07, 74.45 34.9, 96.17 40.13 C117.89 45.36, 139.52 50.04, 149.25 60.79 C158.99 71.54, 153.62 97.15, 154.6 104.64 M-0.79 -0.67 C2.19 4.35, 1.83 23.93, 18.39 30.41 C34.95 36.88, 76.67 32.95, 98.57 38.17 C120.47 43.4, 140.12 50.7, 149.79 61.76 C159.45 72.82, 155.43 97.36, 156.57 104.53" stroke="#1e1e1e" stroke-width="2" fill="none"></path></g><g transform="translate(595.4487911972205 823.0429189204953) rotate(0 77.51001549764476 52.795651717140515)"><path d="M148.59 83.5 C151.63 91.74, 152.08 95.73, 156.57 104.53 M148.59 83.5 C151.22 90.33, 154.57 98.85, 156.57 104.53" stroke="#1e1e1e" stroke-width="2" fill="none"></path></g><g transform="translate(595.4487911972205 823.0429189204953) rotate(0 77.51001549764476 52.795651717140515)"><path d="M163.97 83.29 C161.96 91.66, 157.36 95.71, 156.57 104.53 M163.97 83.29 C161.04 90.16, 158.83 98.76, 156.57 104.53" stroke="#1e1e1e" stroke-width="2" fill="none"></path></g></g><mask id="mask-ozyaC3S4XNKDRQbMu-0q3"><rect x="0" y="0" fill="#fff" width="850.4688221925101" height="1028.6342223547763"></rect><rect x="636.3116591661615" y="852.833586193112" fill="#000" width="112.5" height="19.2" opacity="1"></rect></mask></g><g clip-path="url(#K2qQM-ymCRyR3LhuFB_Cp)"><g transform="translate(636.3116591661615 852.833586193112) rotate(0 37.028476037650876 22.19742766729052)"><text x="56.25" y="15.45" font-family="Cascadia, Segoe UI Emoji" font-size="16px" fill="#1e1e1e" text-anchor="middle" style="white-space: pre;" direction="ltr" dominant-baseline="alphabetic">path_node-04</text></g></g><g clip-path="url(#K2qQM-ymCRyR3LhuFB_Cp)"><g mask="url(#mask-6nViX5bCTnm0zXBKcuXlZ)" stroke-linecap="round"><g transform="translate(650.5102948750005 820.5932249537111) rotate(0 141.59540103880488 51.22618336958833)"><path d="M-0.22 0.48 C14.87 1.81, 60.99 6.93, 89.36 9.08 C117.73 11.23, 141.79 9.1, 169.99 13.37 C198.19 17.64, 239.6 19.73, 258.55 34.69 C277.5 49.64, 279.8 91.92, 283.72 103.1 M-1.79 -0.32 C13.32 1.7, 60.4 8.44, 88.88 10.42 C117.36 12.39, 140.69 7.28, 169.09 11.55 C197.48 15.81, 240.35 20.64, 259.26 36.02 C278.17 51.4, 278.59 92.5, 282.53 103.84" stroke="#1e1e1e" stroke-width="2" fill="none"></path></g><g transform="translate(650.5102948750005 820.5932249537111) rotate(0 141.59540103880488 51.22618336958833)"><path d="M269.73 82.36 C273.3 88.18, 274.43 90.59, 282.53 103.84 M269.73 82.36 C275.22 91.06, 278.74 98.17, 282.53 103.84" stroke="#1e1e1e" stroke-width="2" fill="none"></path></g><g transform="translate(650.5102948750005 820.5932249537111) rotate(0 141.59540103880488 51.22618336958833)"><path d="M286.53 79.16 C286.74 85.59, 284.49 88.65, 282.53 103.84 M286.53 79.16 C285.62 89.14, 282.72 97.48, 282.53 103.84" stroke="#1e1e1e" stroke-width="2" fill="none"></path></g></g><mask id="mask-6nViX5bCTnm0zXBKcuXlZ"><rect x="0" y="0" fill="#fff" width="1033.7010969526102" height="1023.0455916928878"></rect><rect x="764.5140255664953" y="823.3806480168399" fill="#000" width="112.5" height="19.2" opacity="1"></rect></mask></g><g clip-path="url(#K2qQM-ymCRyR3LhuFB_Cp)"><g transform="translate(764.5140255664953 823.3806480168399) rotate(0 26.961274161429515 48.97069017303791)"><text x="56.25" y="15.45" font-family="Cascadia, Segoe UI Emoji" font-size="16px" fill="#1e1e1e" text-anchor="middle" style="white-space: pre;" direction="ltr" dominant-baseline="alphabetic">path_node-05</text></g></g><g clip-path="url(#K2qQM-ymCRyR3LhuFB_Cp)"><g stroke-linecap="round" transform="translate(244.94307646977552 56.48040352762325) rotate(0 323.52493017069907 36.885255072526604)"><path d="M4.91 4.27 C4.91 4.27, 4.91 4.27, 4.91 4.27 M4.91 4.27 C4.91 4.27, 4.91 4.27, 4.91 4.27 M1.76 20.08 C4.19 16.75, 7.83 9.96, 18.82 0.46 M1.76 20.08 C6.59 14.64, 9.94 9.17, 18.82 0.46 M1.9 32.12 C11.67 23.87, 19.93 12, 29.45 0.42 M1.9 32.12 C8.57 25.02, 15.01 16.3, 29.45 0.42 M2.68 43.41 C9.87 33.01, 17.72 23.94, 40.08 0.39 M2.68 43.41 C17.38 27.46, 30.8 11.05, 40.08 0.39 M2.82 55.45 C14.92 42.34, 23.94 30.87, 50.71 0.36 M2.82 55.45 C19.47 35.65, 34.94 18.38, 50.71 0.36 M4.26 65.98 C26.76 40.16, 48.07 16.34, 61.34 0.32 M4.26 65.98 C16.04 51.3, 28.96 37.23, 61.34 0.32 M8.99 72.74 C31.23 46.15, 54.95 20.53, 71.97 0.29 M8.99 72.74 C28.99 50.62, 47.88 25.87, 71.97 0.29 M16.99 75.72 C37.03 50.11, 58.64 26.52, 82.6 0.25 M16.99 75.72 C40.29 47.03, 65.58 20.47, 82.6 0.25 M27.62 75.69 C48.05 53.79, 70.68 26.69, 93.23 0.22 M27.62 75.69 C49.93 50.15, 74.09 23.91, 93.23 0.22 M38.25 75.65 C58.28 49.27, 80.63 22.86, 103.86 0.18 M38.25 75.65 C53.67 59.72, 67.34 43.19, 103.86 0.18 M48.88 75.62 C65.59 59.3, 77 41.79, 114.49 0.15 M48.88 75.62 C63.56 58.06, 79.02 38.58, 114.49 0.15 M59.51 75.59 C73.38 55.21, 89.59 37.33, 125.12 0.11 M59.51 75.59 C74.97 58.03, 90.91 40.39, 125.12 0.11 M70.14 75.55 C92.91 50.2, 113.09 22.4, 135.75 0.08 M70.14 75.55 C93.87 50.12, 116.07 23.79, 135.75 0.08 M80.12 76.27 C98.55 56.06, 114.77 36.34, 145.72 0.8 M80.12 76.27 C99.52 56.32, 118.06 34.5, 145.72 0.8 M90.75 76.24 C109.69 52.64, 130.54 32.24, 156.35 0.77 M90.75 76.24 C106.53 57.73, 124.01 37, 156.35 0.77 M101.38 76.2 C116.02 62.93, 127.99 45.28, 166.98 0.73 M101.38 76.2 C120.26 53.62, 140.54 31.41, 166.98 0.73 M112.01 76.17 C124.05 59.39, 140.22 45.88, 177.61 0.7 M112.01 76.17 C132.39 52.71, 151.82 29.78, 177.61 0.7 M122.64 76.13 C142.42 55.75, 159.06 34.48, 188.24 0.66 M122.64 76.13 C137.06 60.05, 150.79 44.4, 188.24 0.66 M133.27 76.1 C157.23 48.83, 181.33 22.55, 198.87 0.63 M133.27 76.1 C149.48 56.91, 165.34 37.57, 198.87 0.63 M143.9 76.06 C159.53 57.52, 175.51 41.35, 209.51 0.59 M143.9 76.06 C161.74 56.69, 178.69 37.4, 209.51 0.59 M154.53 76.03 C177.88 50.01, 200.65 23, 220.14 0.56 M154.53 76.03 C167.97 59.66, 181.3 45.22, 220.14 0.56 M165.16 76 C183 52.51, 202.34 32.67, 230.77 0.52 M165.16 76 C181.23 56.4, 198.76 36.63, 230.77 0.52 M175.79 75.96 C200.93 47.94, 224.66 20.72, 241.4 0.49 M175.79 75.96 C198.04 52.79, 217.49 28.62, 241.4 0.49 M186.42 75.93 C208.16 48.34, 233.87 23.5, 252.03 0.46 M186.42 75.93 C207.81 53.07, 228.31 29.06, 252.03 0.46 M197.05 75.89 C210.85 56.69, 227.81 38.99, 262.66 0.42 M197.05 75.89 C214.34 54.73, 232.44 34.56, 262.66 0.42 M207.68 75.86 C234.39 48.15, 257.88 18.71, 273.29 0.39 M207.68 75.86 C227.97 53.2, 247.56 29.66, 273.29 0.39 M218.31 75.82 C231.8 56.16, 248.51 38.74, 283.92 0.35 M218.31 75.82 C244.43 46.47, 270.02 15.61, 283.92 0.35 M228.94 75.79 C247.4 52.64, 267.24 30.58, 294.55 0.32 M228.94 75.79 C243.9 58.21, 258.74 41.07, 294.55 0.32 M239.57 75.75 C258.42 54, 274.07 33.41, 305.18 0.28 M239.57 75.75 C262.71 49.36, 286.08 22.14, 305.18 0.28 M250.2 75.72 C262.59 60.26, 279.01 44.31, 315.81 0.25 M250.2 75.72 C266.79 59.14, 282.01 40.85, 315.81 0.25 M260.83 75.68 C276.29 55.1, 296.85 35.71, 326.44 0.21 M260.83 75.68 C276.35 59, 292.53 41.12, 326.44 0.21 M271.46 75.65 C285.16 59.04, 298.82 44.51, 337.07 0.18 M271.46 75.65 C284.24 60.22, 298.03 44.65, 337.07 0.18 M281.43 76.37 C296.62 58.77, 311.41 39.28, 347.04 0.9 M281.43 76.37 C300.71 52.52, 321.1 30.04, 347.04 0.9 M292.06 76.34 C305.61 59.03, 317.88 43.21, 357.67 0.86 M292.06 76.34 C316.36 47.65, 341.98 20.27, 357.67 0.86 M302.69 76.3 C326.13 50.8, 347.07 23.24, 368.3 0.83 M302.69 76.3 C315.78 60.44, 329.86 43.61, 368.3 0.83 M313.32 76.27 C329.33 57.14, 342.17 42.05, 378.93 0.8 M313.32 76.27 C331.87 55.31, 351.55 32.33, 378.93 0.8 M323.95 76.23 C342.44 54.27, 361.31 35.75, 389.56 0.76 M323.95 76.23 C336.65 60.74, 351.85 44.84, 389.56 0.76 M334.58 76.2 C357.35 46.76, 382.67 17.41, 400.19 0.73 M334.58 76.2 C351.92 57.12, 369.07 35.43, 400.19 0.73 M345.21 76.16 C366.66 51.35, 384.54 28.89, 410.82 0.69 M345.21 76.16 C367.99 52.24, 389.59 25.22, 410.82 0.69 M355.84 76.13 C372.37 56.26, 388.62 36.69, 421.45 0.66 M355.84 76.13 C377.74 50.66, 399.09 24.83, 421.45 0.66 M366.47 76.09 C390.4 49.4, 416.06 20.58, 432.08 0.62 M366.47 76.09 C393.06 46.59, 417.61 16.24, 432.08 0.62 M377.11 76.06 C396.69 51.79, 414.65 30.97, 442.71 0.59 M377.11 76.06 C397.31 52.74, 415.57 30.39, 442.71 0.59 M387.74 76.03 C412.2 47.7, 440.21 18.75, 453.34 0.55 M387.74 76.03 C402.64 57.94, 417.02 42.47, 453.34 0.55 M398.37 75.99 C421.03 50.41, 443.29 25.38, 463.97 0.52 M398.37 75.99 C414.91 57.98, 430.23 39.5, 463.97 0.52 M409 75.96 C436.37 44.46, 459.67 16.79, 474.6 0.49 M409 75.96 C434.21 45.79, 460.62 15.54, 474.6 0.49 M419.63 75.92 C439.81 50.86, 463.23 25.9, 485.23 0.45 M419.63 75.92 C435.72 56.41, 451.44 37.29, 485.23 0.45 M430.26 75.89 C456.14 47.15, 480.19 19.39, 495.86 0.42 M430.26 75.89 C453.08 50.72, 475.35 25.26, 495.86 0.42 M440.89 75.85 C459.26 50.88, 481.76 31.36, 506.49 0.38 M440.89 75.85 C461.95 52.78, 481.87 29.45, 506.49 0.38 M451.52 75.82 C467.89 56, 486.14 37.59, 517.12 0.35 M451.52 75.82 C476.33 47.6, 502.04 16.4, 517.12 0.35 M462.15 75.78 C476.69 60.92, 490.62 43.57, 527.75 0.31 M462.15 75.78 C485.18 49.32, 509.32 21.5, 527.75 0.31 M472.78 75.75 C492.16 54.19, 506.4 37.29, 538.38 0.28 M472.78 75.75 C494.77 49.05, 518.96 23.29, 538.38 0.28 M483.41 75.71 C497.7 58.2, 509.62 46.02, 548.36 1 M483.41 75.71 C499.91 56.4, 517.57 37.16, 548.36 1 M493.38 76.44 C517.87 45.57, 544.6 17.74, 558.99 0.96 M493.38 76.44 C516.46 49.36, 540.36 23.83, 558.99 0.96 M504.01 76.4 C521.72 57.22, 537.17 40.24, 569.62 0.93 M504.01 76.4 C520.27 56.97, 538.71 38.09, 569.62 0.93 M514.64 76.37 C539.2 46.68, 566.6 20.06, 580.25 0.9 M514.64 76.37 C539.34 48.15, 562.33 20.91, 580.25 0.9 M525.27 76.33 C540.63 58.17, 554.13 44.23, 590.88 0.86 M525.27 76.33 C542.76 56.01, 560.32 36.11, 590.88 0.86 M535.9 76.3 C555.78 56.2, 573.46 34.89, 601.51 0.83 M535.9 76.3 C557.14 51.7, 577.23 28.18, 601.51 0.83 M546.53 76.26 C567.14 55.19, 585.2 32.47, 612.14 0.79 M546.53 76.26 C560.47 59.45, 575.01 43.56, 612.14 0.79 M557.16 76.23 C576.88 54.19, 591.11 37.24, 622.77 0.76 M557.16 76.23 C577.83 51.6, 599.87 26.06, 622.77 0.76 M567.79 76.19 C590.6 50.6, 609.24 28.75, 633.4 0.72 M567.79 76.19 C588.3 52.44, 608.48 27.84, 633.4 0.72 M578.42 76.16 C595.13 57.4, 614.43 36.39, 641.4 3.71 M578.42 76.16 C596.28 54.52, 616.52 32.12, 641.4 3.71 M589.05 76.12 C602.02 61.67, 614.26 48.28, 646.13 10.47 M589.05 76.12 C608.33 54.47, 628.18 30.68, 646.13 10.47 M599.68 76.09 C609.89 65.62, 622.63 51.3, 648.89 19.49 M599.68 76.09 C617.62 55.31, 635.07 34.91, 648.89 19.49 M610.31 76.06 C621.43 64.16, 631.09 55.49, 648.36 32.28 M610.31 76.06 C619.57 65.51, 626.97 57.98, 648.36 32.28 M620.94 76.02 C628.02 67.43, 632.93 60.28, 648.5 44.32 M620.94 76.02 C631.94 64.31, 642.28 50.36, 648.5 44.32 M631.57 75.99 C634.95 70.33, 642.32 64.86, 648.63 56.36 M631.57 75.99 C637.99 68.34, 645.22 62, 648.63 56.36" stroke="#e9ecef" stroke-width="1" fill="none"></path><path d="M18.44 0 C165.97 -1.86, 313.16 -0.7, 628.61 0 M18.44 0 C156.4 1.89, 294.34 1.66, 628.61 0 M628.61 0 C642.77 -0.11, 646.38 7.96, 647.05 18.44 M628.61 0 C642.8 1.62, 648.77 6.11, 647.05 18.44 M647.05 18.44 C648.13 29.14, 646.32 41.68, 647.05 55.33 M647.05 18.44 C646.24 26.94, 648.12 37.22, 647.05 55.33 M647.05 55.33 C647.45 67.97, 638.94 74.01, 628.61 73.77 M647.05 55.33 C648.56 68.04, 640.47 73.38, 628.61 73.77 M628.61 73.77 C458.37 76.29, 288.59 76.13, 18.44 73.77 M628.61 73.77 C425.83 75.36, 222.18 75.56, 18.44 73.77 M18.44 73.77 C5.86 75, 0.08 67.05, 0 55.33 M18.44 73.77 C7.9 72.13, 1.28 66.78, 0 55.33 M0 55.33 C1.38 44.92, 1 34.14, 0 18.44 M0 55.33 C-0.19 41.1, -0.61 25.52, 0 18.44 M0 18.44 C-1.15 7.63, 7.46 -0.86, 18.44 0 M0 18.44 C1.47 5.29, 6.59 -2.1, 18.44 0" stroke="#1e1e1e" stroke-width="2" fill="none"></path></g></g><g clip-path="url(#K2qQM-ymCRyR3LhuFB_Cp)"><g transform="translate(355.2760968504356 75.86565860014991) rotate(0 213.19190979003906 17.5)"><text x="213.19190979003906" y="24.528" font-family="Virgil, Segoe UI Emoji" font-size="28px" fill="#1e1e1e" text-anchor="middle" style="white-space: pre;" direction="ltr" dominant-baseline="alphabetic">Kubenurse request_type labels</text></g></g></svg>